<svg width="32" height="32" viewBox="0 0 32 32" fill="none" xmlns="http://www.w3.org/2000/svg">
<path d="M29.9293 21.4661L16.0983 11.323L2.11543 21.5776C1.19365 19.3072 0.842629 16.8455 1.09321 14.408C1.34379 11.9704 2.1883 9.63162 3.55271 7.59627C4.91712 5.56093 6.75982 3.8912 8.91939 2.73341C11.079 1.57561 13.4895 0.965029 15.9399 0.955199C18.3902 0.945368 20.8055 1.5366 22.9743 2.67703C25.1431 3.81747 26.9992 5.47236 28.3799 7.49669C29.7606 9.52102 30.6238 11.853 30.8939 14.2885C31.1641 16.7239 30.8329 19.1884 29.9293 21.4661Z" fill="#2F4269"/>
<path d="M16.0958 15.1372L28.5587 24.3876C27.1744 26.4293 25.3131 28.1027 23.1361 29.2627C20.9592 30.4228 18.5321 31.0345 16.0654 31.0448C13.5986 31.0552 11.1665 30.4639 8.97989 29.3221C6.79324 28.1804 4.91797 26.5227 3.5166 24.4926L16.0958 15.1372Z" fill="#F26001"/>
</svg>
