<svg fill="currentColor" xmlns="http://www.w3.org/2000/svg">
    <symbol id="photos" viewBox="0 0 24 24">
        <path
            d="M4.79999 19.7C4.36665 19.7 4.00832 19.5583 3.72499 19.275C3.44165 18.9917 3.29999 18.6333 3.29999 18.2V7.79999C3.29999 7.36665 3.44165 7.00832 3.72499 6.72499C4.00832 6.44165 4.36665 6.29999 4.79999 6.29999H7.69999L9.09999 4.77499C9.23332 4.62499 9.39582 4.50832 9.58749 4.42499C9.77915 4.34165 9.98332 4.29999 10.2 4.29999H13.8C14.0167 4.29999 14.2208 4.34165 14.4125 4.42499C14.6042 4.50832 14.7667 4.62499 14.9 4.77499L16.3 6.29999H19.2C19.6333 6.29999 19.9917 6.44165 20.275 6.72499C20.5583 7.00832 20.7 7.36665 20.7 7.79999V18.2C20.7 18.6333 20.5583 18.9917 20.275 19.275C19.9917 19.5583 19.6333 19.7 19.2 19.7H4.79999ZM4.79999 19H19.2C19.4333 19 19.625 18.925 19.775 18.775C19.925 18.625 20 18.4333 20 18.2V7.79999C20 7.56665 19.925 7.37499 19.775 7.22499C19.625 7.07499 19.4333 6.99999 19.2 6.99999H16L14.15 4.99999H9.84999L7.99999 6.99999H4.79999C4.56665 6.99999 4.37499 7.07499 4.22499 7.22499C4.07499 7.37499 3.99999 7.56665 3.99999 7.79999V18.2C3.99999 18.4333 4.07499 18.625 4.22499 18.775C4.37499 18.925 4.56665 19 4.79999 19Z"
            stroke="currentColor" stroke-width="0.32" />
        <path fill-rule="evenodd" clip-rule="evenodd"
            d="M10.1528 9.86824C9.17028 9.86824 8.5374 10.6583 8.5374 11.4857C8.5374 11.8872 8.70897 12.3116 8.98424 12.7273C9.25726 13.1396 9.61288 13.514 9.93406 13.8079C10.5991 14.4164 11.3335 15.0422 11.5767 15.2274C11.5997 15.2449 11.6214 15.2615 11.6422 15.2774C11.7468 15.3575 11.8255 15.4177 11.9001 15.4636C11.9849 15.5158 12.0193 15.5198 12.0251 15.52C12.0251 15.52 12.0377 15.5188 12.0629 15.5097C12.0908 15.4995 12.1247 15.4831 12.1623 15.4608C12.2391 15.4151 12.3076 15.3589 12.3419 15.3263C12.3775 15.2924 12.4714 15.2124 12.6033 15.1C12.6924 15.0241 12.7988 14.9334 12.9163 14.8322C13.2189 14.5715 13.6196 14.2204 14.0646 13.8091C14.9487 12.9918 15.4626 12.3021 15.4626 11.3636C15.4626 10.517 14.6553 9.86824 13.7702 9.86824C13.4467 9.86824 13.131 9.98782 12.8575 10.1544C12.5838 10.3211 12.3769 10.5202 12.2779 10.6404L11.9788 11.0035L11.7065 10.6199C11.5394 10.3847 10.9691 9.86824 10.1528 9.86824ZM7.8174 11.4857C7.8174 10.3113 8.72382 9.14824 10.1528 9.14824C10.9913 9.14824 11.6336 9.53869 12.0107 9.88819C12.1431 9.77118 12.3025 9.64944 12.4829 9.53952C12.8273 9.32976 13.2727 9.14824 13.7702 9.14824C14.9375 9.14824 16.1826 10.013 16.1826 11.3636C16.1826 12.6223 15.465 13.4951 14.5533 14.3378C14.1003 14.7566 13.6929 15.1135 13.3862 15.3777C13.2378 15.5055 13.1178 15.6076 13.0278 15.6843C12.925 15.7717 12.8611 15.8261 12.8382 15.8479C12.7698 15.9129 12.6588 16.0032 12.5304 16.0796C12.4116 16.1502 12.2273 16.24 12.0256 16.24C11.824 16.24 11.6524 16.1566 11.5226 16.0767C11.4139 16.0098 11.3002 15.9226 11.1965 15.8431C11.1775 15.8285 11.1588 15.8142 11.1406 15.8003C10.8707 15.5948 10.117 14.9512 9.44802 14.3391C9.10217 14.0226 8.70097 13.6036 8.38393 13.1248C8.06913 12.6494 7.8174 12.0851 7.8174 11.4857Z"
            stroke="currentColor" stroke-width="0.32" />
    </symbol>
    <symbol id="studio" viewBox="0 0 24 24">

        <path
            d="M11.926 9.72818L11.9644 9.78506L12.0067 9.73103L12.3116 9.34201C12.4697 9.14035 12.7904 8.81742 13.2117 8.54775C13.6331 8.27795 14.1252 8.08045 14.6345 8.08045C15.987 8.08045 17.2918 9.12821 17.2918 10.5844C17.2918 12.1355 16.4779 13.2601 15.154 14.5462C14.4875 15.1936 13.8874 15.7462 13.4344 16.1563C13.252 16.3214 13.0897 16.4667 12.9559 16.5865L12.9557 16.5867L12.9524 16.5896C12.7645 16.7578 12.6317 16.8767 12.5809 16.9276C12.5232 16.9853 12.413 17.08 12.2893 17.1574C12.2225 17.1991 12.1656 17.227 12.1204 17.2443C12.0743 17.262 12.0432 17.2676 12.0273 17.2676C11.9924 17.2676 11.9204 17.2515 11.7803 17.1608C11.6632 17.085 11.5392 16.9853 11.3822 16.8591L11.2865 16.7823C10.9182 16.4876 9.81713 15.5013 8.82239 14.5448C8.33789 14.0789 7.79729 13.4816 7.38019 12.8197C6.96098 12.1544 6.68607 11.4549 6.68607 10.7761C6.68607 9.38196 7.69846 8.08045 9.22836 8.08045C10.4918 8.08045 11.379 8.91863 11.6492 9.31863L11.926 9.72818ZM9.22836 7.26045C7.15378 7.26045 5.86607 9.0267 5.86607 10.7761C5.86607 11.6694 6.2238 12.5226 6.68644 13.2568C7.15119 13.9944 7.74166 14.6432 8.25404 15.1358C9.25306 16.0964 10.3758 17.1038 10.7743 17.4226L10.8601 17.4916L10.8613 17.4926C11.0159 17.617 11.1787 17.7482 11.3349 17.8493C11.5208 17.9695 11.7555 18.0876 12.0273 18.0876C12.299 18.0876 12.5529 17.9596 12.7239 17.8527C12.9069 17.7383 13.0651 17.603 13.1607 17.5074C13.1968 17.4713 13.2982 17.3806 13.461 17.2349C13.5959 17.1142 13.7718 16.9569 13.9847 16.7642C14.4422 16.35 15.0499 15.7906 15.7254 15.1344C17.0853 13.8133 18.1118 12.484 18.1118 10.5844C18.1118 8.5895 16.349 7.26045 14.6345 7.26045C13.9169 7.26045 13.2715 7.53584 12.7696 7.85713C12.4686 8.04978 12.2086 8.26564 12.003 8.46582C11.4753 7.92145 10.5114 7.26045 9.22836 7.26045ZM13.6041 2.87892L19.0799 6.0407C20.0792 6.6177 20.6948 7.68398 20.6948 8.8379V15.1621C20.6948 16.316 20.0792 17.3823 19.0799 17.9593L13.6041 21.1211C12.6046 21.6982 11.3733 21.6982 10.3738 21.1211L4.898 17.9593C3.8987 17.3823 3.28312 16.316 3.28312 15.1621V8.8379C3.28312 7.68398 3.89871 6.6177 4.898 6.0407L10.3738 2.87892C11.3733 2.30185 12.6046 2.30185 13.6041 2.87892ZM14.0141 2.1688C12.7609 1.44522 11.217 1.44522 9.9638 2.1688L4.48797 5.33058C3.23498 6.05406 2.46312 7.39103 2.46312 8.8379V15.1621C2.46312 16.609 3.23498 17.946 4.48797 18.6694L9.9638 21.8312C11.217 22.5548 12.7609 22.5548 14.0141 21.8312L19.4899 18.6694C20.7429 17.946 21.5148 16.609 21.5148 15.1621V8.8379C21.5148 7.39103 20.7429 6.05406 19.4899 5.33058L14.0141 2.1688Z"
            stroke="currentColor" stroke-width="0.32" />
    </symbol>

    <symbol id="studio-filled" viewBox="0 0 24 24">
        <path fill-rule="evenodd" clip-rule="evenodd"
            d="M5.91607 10.7761C5.91607 9.04817 7.18716 7.31045 9.22836 7.31045C10.5224 7.31045 11.4885 7.99249 12.0019 8.53704C12.2107 8.32921 12.4809 8.10128 12.7965 7.89924C13.2935 7.58109 13.9296 7.31045 14.6345 7.31045C16.3271 7.31045 18.0618 8.62251 18.0618 10.5844C18.0618 12.4628 17.0483 13.7796 15.6905 15.0985C15.0156 15.7542 14.4084 16.3132 13.9511 16.7271C13.7384 16.9197 13.5626 17.077 13.4277 17.1977C13.2657 17.3425 13.1627 17.4347 13.1254 17.472C13.032 17.5654 12.8768 17.6982 12.6974 17.8103C12.5286 17.9158 12.2845 18.0376 12.0273 18.0376C11.7699 18.0376 11.5451 17.9257 11.362 17.8073C11.208 17.7076 11.0469 17.5778 10.8915 17.4526C10.8626 17.4294 10.8339 17.4063 10.8055 17.3836C10.4089 17.0663 9.28745 16.0601 8.2887 15.0998C7.77802 14.6088 7.19059 13.9631 6.72874 13.2302C6.26875 12.5002 5.91607 11.6563 5.91607 10.7761Z" />
        <path fill-rule="evenodd" clip-rule="evenodd" stroke="currentColor" stroke-width="0.32"
            d="M19.1049 5.9974L13.6291 2.83562C12.6142 2.24962 11.3637 2.24961 10.3488 2.83562L4.873 5.9974C3.85823 6.58334 3.23312 7.66611 3.23312 8.8379V15.1621C3.23312 16.3339 3.85823 17.4167 4.873 18.0026L10.3488 21.1644C11.3637 21.7504 12.6142 21.7504 13.6291 21.1644L19.1049 18.0026C20.1197 17.4167 20.7448 16.3339 20.7448 15.1621V8.8379C20.7448 7.66611 20.1197 6.58334 19.1049 5.9974ZM13.9891 2.2121C12.7514 1.49746 11.2265 1.49746 9.9888 2.2121L4.51298 5.37388C3.27545 6.08843 2.51312 7.40889 2.51312 8.8379V15.1621C2.51312 16.5911 3.27545 17.9116 4.51297 18.6261L9.9888 21.7879C11.2265 22.5026 12.7514 22.5026 13.9891 21.7879L19.4649 18.6261C20.7024 17.9116 21.4648 16.5911 21.4648 15.1621V8.8379C21.4648 7.40889 20.7024 6.08843 19.4649 5.37388L13.9891 2.2121Z" />

    </symbol>

    <symbol id="photos-filled" viewBox="0 0 24 24">
        <path fill-rule="evenodd" clip-rule="evenodd"
            d="M3.72499 19.275C4.00832 19.5583 4.36665 19.7 4.79999 19.7H19.2C19.6333 19.7 19.9917 19.5583 20.275 19.275C20.5583 18.9917 20.7 18.6333 20.7 18.2V7.79999C20.7 7.36665 20.5583 7.00832 20.275 6.72499C19.9917 6.44165 19.6333 6.29999 19.2 6.29999H16.3L14.9 4.77499C14.7667 4.62499 14.6042 4.50832 14.4125 4.42499C14.2208 4.34165 14.0167 4.29999 13.8 4.29999H10.2C9.98332 4.29999 9.77915 4.34165 9.58749 4.42499C9.39582 4.50832 9.23332 4.62499 9.09999 4.77499L7.69999 6.29999H4.79999C4.36665 6.29999 4.00832 6.44165 3.72499 6.72499C3.44165 7.00832 3.29999 7.36665 3.29999 7.79999V18.2C3.29999 18.6333 3.44165 18.9917 3.72499 19.275ZM10.1528 9.86824C9.17028 9.86824 8.5374 10.6583 8.5374 11.4857C8.5374 11.8872 8.70897 12.3116 8.98424 12.7273C9.25726 13.1396 9.61288 13.514 9.93406 13.8079C10.5991 14.4164 11.3335 15.0422 11.5767 15.2274L11.6422 15.2774C11.7468 15.3575 11.8255 15.4177 11.9001 15.4636C11.9849 15.5158 12.0193 15.5198 12.0251 15.52C12.0251 15.52 12.0377 15.5188 12.0629 15.5097C12.0908 15.4995 12.1247 15.4831 12.1623 15.4608C12.2391 15.4151 12.3076 15.3589 12.3419 15.3263C12.3775 15.2924 12.4714 15.2124 12.6033 15.1C12.6924 15.0241 12.7988 14.9334 12.9163 14.8322C13.2189 14.5715 13.6196 14.2204 14.0646 13.8091C14.9487 12.9918 15.4626 12.3021 15.4626 11.3636C15.4626 10.517 14.6553 9.86824 13.7702 9.86824C13.4467 9.86824 13.131 9.98782 12.8575 10.1544C12.5838 10.3211 12.3769 10.5202 12.2779 10.6404L11.9788 11.0035L11.7065 10.6199C11.5394 10.3847 10.9691 9.86824 10.1528 9.86824Z" />

    </symbol>
</svg>