<svg width="33" height="32" viewBox="0 0 33 32" fill="none" xmlns="http://www.w3.org/2000/svg">
<path fill-rule="evenodd" clip-rule="evenodd" d="M16.6665 0C19.831 0 22.9244 0.938384 25.5556 2.69649C28.1868 4.45459 30.2376 6.95345 31.4486 9.87706C32.6596 12.8007 32.9764 16.0177 32.3591 19.1214C31.7417 22.2251 30.2179 25.0761 27.9802 27.3137C25.7426 29.5513 22.8916 31.0752 19.788 31.6926C16.6843 32.3099 13.4672 31.9931 10.5436 30.7821C7.61995 29.5711 5.12109 27.5203 3.36299 24.8891C1.60489 22.2579 0.666504 19.1645 0.666504 16C0.666504 11.7565 2.35221 7.68687 5.3528 4.68629C8.35338 1.68571 12.423 0 16.6665 0Z" fill="url(#paint0_linear_1062_16121)"/>
<path fill-rule="evenodd" clip-rule="evenodd" d="M16.6297 30.5862C13.7259 30.5858 10.8875 29.7243 8.47328 28.1108C6.05908 26.4972 4.17755 24.204 3.06664 21.5211C1.95573 18.8382 1.66533 15.8862 2.23214 13.0383C2.79896 10.1903 4.19754 7.57445 6.25104 5.52137C8.30453 3.4683 10.9207 2.07025 13.7687 1.50402C16.6168 0.937784 19.5688 1.2288 22.2514 2.34025C24.9341 3.45171 27.2269 5.3337 28.84 7.74823C30.453 10.1628 31.3139 13.0014 31.3137 15.9052C31.3136 17.8333 30.9337 19.7426 30.1956 21.5239C29.4576 23.3052 28.3759 24.9237 27.0124 26.287C25.6488 27.6502 24.0301 28.7316 22.2487 29.4692C20.4672 30.2069 18.5579 30.5864 16.6297 30.5862Z" fill="black"/>
<path d="M15.4454 6.10107H12.5704L9.7334 10.2531V26.5931H15.4484L15.4454 6.10107Z" fill="white"/>
<path d="M24.0307 6.10107H15.2856V10.2911H21.1716L24.0307 6.10107Z" fill="white"/>
<path d="M21.0745 14.437H15.4355V18.563H21.0745V14.437Z" fill="white"/>
<path d="M15.4347 26.5918H9.7207L12.5667 22.5698L15.4347 26.5918Z" fill="#626466"/>
<path d="M9.7207 26.5922V18.6162L12.5637 22.5702L9.7207 26.5922Z" fill="#6D6E71"/>
<path d="M15.4395 26.591V18.562L12.5615 22.57L15.4395 26.591Z" fill="#BCBEC0"/>
<path d="M15.4434 18.563L12.5654 22.571V14.437L15.4434 18.563Z" fill="#E6E7E8"/>
<path d="M9.72266 18.616L12.5656 22.57V14.437L9.72266 18.616Z" fill="#808285"/>
<path d="M15.4434 18.5939V10.2939L12.5674 14.4389L15.4434 18.5939Z" fill="#D1D3D4"/>
<path d="M21.0383 18.57L15.4443 18.575L18.2443 14.437L21.0383 18.57Z" fill="#D1D3D4"/>
<path d="M18.2485 14.437H21.0625L21.0385 18.57L18.2485 14.437Z" fill="#F1F2F2"/>
<path fill-rule="evenodd" clip-rule="evenodd" d="M15.4443 18.575V14.437H18.2443L15.4443 18.575Z" fill="#A7A9AC"/>
<path d="M9.72266 18.6162V10.2622L12.5677 14.4362L9.72266 18.6162Z" fill="#A7A9AC"/>
<path d="M9.7207 10.2621L12.5677 14.4371V6.10107L9.7207 10.2621Z" fill="#BCBEC0"/>
<path d="M15.4434 10.2911L12.5674 14.4371V6.10107L15.4434 10.2911Z" fill="#F1F2F2"/>
<path d="M21.1704 10.2901H15.4434L18.2084 6.1001L21.1704 10.2901Z" fill="#DBDCDE"/>
<path d="M12.5674 6.10107H18.2054L15.4404 10.2911L12.5674 6.10107Z" fill="#BCBEC0"/>
<path d="M18.2085 6.10107H24.0275L21.1685 10.2911L18.2085 6.10107Z" fill="#F1F2F2"/>
<defs>
<linearGradient id="paint0_linear_1062_16121" x1="25.8505" y1="2.88" x2="7.48251" y2="29.12" gradientUnits="userSpaceOnUse">
<stop stop-color="white"/>
<stop offset="0.1" stop-color="#DADADA" stop-opacity="0.988"/>
<stop offset="0.29" stop-color="#989898" stop-opacity="0.961"/>
<stop offset="0.47" stop-color="#626262" stop-opacity="0.941"/>
<stop offset="0.63" stop-color="#383838" stop-opacity="0.922"/>
<stop offset="0.78" stop-color="#191919" stop-opacity="0.91"/>
<stop offset="0.91" stop-color="#070707" stop-opacity="0.902"/>
<stop offset="1" stop-opacity="0.902"/>
</linearGradient>
</defs>
</svg>
