<svg width="32" height="32" viewBox="0 0 32 32" fill="none" xmlns="http://www.w3.org/2000/svg">
<path d="M16 32C24.8366 32 32 24.8366 32 16C32 7.16344 24.8366 0 16 0C7.16344 0 0 7.16344 0 16C0 24.8366 7.16344 32 16 32Z" fill="#546E7A"/>
<path opacity="0.1" fill-rule="evenodd" clip-rule="evenodd" d="M24.9782 11.095L24.9691 19.7086C24.9663 20.0128 24.8853 20.3111 24.734 20.575C24.5826 20.8388 24.366 21.0594 24.105 21.2155C23.8318 21.3809 23.5186 21.4684 23.1992 21.4686H24.105C24.3683 21.3118 24.5864 21.0893 24.7379 20.8229C24.8893 20.5565 24.969 20.2553 24.9691 19.9489L24.9782 11.095ZM7.20118 19.7086V19.9617C7.20248 20.2686 7.28332 20.5699 7.43579 20.8363C7.58826 21.1026 7.80716 21.3249 8.07115 21.4814H8.97746C8.65742 21.4808 8.34355 21.3933 8.06934 21.2283H8.07115C7.8073 21.0717 7.5885 20.8494 7.43604 20.5831C7.28359 20.3168 7.20267 20.0156 7.20118 19.7088V19.7086ZM26.7554 23.2499H5.42383V23.503H26.7554V23.2499ZM23.1992 10.8477H8.97746V11.1008H23.1992V10.8477Z" fill="black"/>
<path fill-rule="evenodd" clip-rule="evenodd" d="M24.1068 21.5635H23.1992C23.6673 21.5626 24.1161 21.3767 24.4477 21.0462C24.7793 20.7157 24.9667 20.2675 24.9691 19.7994L24.9782 11.2272V10.9755C24.9733 10.5071 24.7836 10.0595 24.4505 9.7302C24.1173 9.40085 23.6677 9.21634 23.1992 9.2168H8.97746C8.50818 9.21636 8.0578 9.40161 7.72465 9.73211C7.39151 10.0626 7.20267 10.5115 7.19937 10.9808V19.7923C7.2045 20.2607 7.39368 20.7083 7.72603 21.0383C8.05839 21.3684 8.50725 21.5544 8.97565 21.5563H5.42383V23.3205H26.7554V21.5563L24.1068 21.5635ZM23.1992 11.2326V19.7994H8.97746V10.988H23.1992V11.2326ZM18.8897 14.1998C18.7702 13.6226 18.4755 13.0965 18.0457 12.6932C17.616 12.2899 17.0722 12.0291 16.4887 11.9464C15.9051 11.8638 15.3103 11.9633 14.7855 12.2314C14.2606 12.4995 13.8314 12.9232 13.5563 13.4444C13.0204 13.5005 12.5219 13.7452 12.1497 14.1349C11.7775 14.5246 11.556 15.0338 11.5246 15.5718V15.8236C11.5581 16.405 11.813 16.9516 12.2369 17.3509C12.6609 17.7502 13.2216 17.972 13.804 17.9707H18.7555C19.2373 17.9722 19.7015 17.7903 20.0541 17.462C20.4066 17.1337 20.6211 16.6835 20.6538 16.2029V15.9513C20.6217 15.4952 20.4251 15.0663 20.1007 14.7442C19.7762 14.4221 19.3459 14.2286 18.8897 14.1998ZM14.4383 15.0665L16.0894 13.4301L17.7406 15.0665L17.9937 15.3196H16.8502V16.8303H15.3259V15.3196H14.1841L14.4383 15.0665Z" fill="#FFA726"/>
<path opacity="0.2" fill-rule="evenodd" clip-rule="evenodd" d="M16.0851 11.9335C15.5624 11.9335 15.0498 12.0765 14.6026 12.347C14.1555 12.6175 13.7909 13.0053 13.5484 13.4683C12.9906 13.5291 12.475 13.7938 12.1003 14.2115C11.7257 14.6292 11.5185 15.1705 11.5185 15.7316V15.8526C11.5505 15.3136 11.7729 14.8036 12.146 14.4134C12.5191 14.0232 13.0187 13.7782 13.5556 13.7221C13.829 13.1982 14.2582 12.7719 14.7839 12.5021C15.3097 12.2323 15.9062 12.1322 16.4913 12.2156C17.0763 12.2991 17.6211 12.5619 18.0505 12.9679C18.48 13.3739 18.7729 13.9031 18.889 14.4825C19.3451 14.5118 19.7752 14.7055 20.0995 15.0276C20.4237 15.3498 20.6202 15.7786 20.6524 16.2346V16.1116C20.6513 15.6316 20.4677 15.17 20.139 14.8202C19.8102 14.4704 19.3608 14.2587 18.8817 14.228C18.7523 13.5813 18.4029 12.9995 17.8929 12.5813C17.3829 12.1632 16.7438 11.9346 16.0843 11.9345L16.0851 11.9335ZM17.7344 15.3532H16.85L16.8446 15.6063H17.9888L17.7357 15.3532H17.7344ZM15.3214 15.3532H14.4334L14.1851 15.6063H15.3214V15.3532ZM16.8457 16.8706H15.3212L15.3268 17.1237H16.8455V16.8706H16.8457ZM23.1992 19.8509H8.97746V20.104H23.1992V19.8509ZM26.7554 21.6227H24.105C23.8318 21.788 23.5185 21.8756 23.1992 21.8758H26.7554V21.6227ZM8.06934 21.6227H5.42383V21.8758H8.978C8.65797 21.8751 8.34412 21.7876 8.06988 21.6227H8.06934ZM23.1997 9.22168H8.97746C8.50715 9.22225 8.05617 9.4089 7.72302 9.74086C7.38987 10.0728 7.20162 10.5231 7.19937 10.9934V11.2465C7.20171 10.7763 7.39 10.326 7.72313 9.99407C8.05626 9.66213 8.50718 9.47545 8.97746 9.47479H23.1992C23.6687 9.47535 24.1189 9.66122 24.452 9.99199C24.7852 10.3228 24.9743 10.7717 24.9782 11.2411V10.994C24.9763 10.5234 24.7881 10.0727 24.4546 9.74066C24.1212 9.40859 23.6698 9.22217 23.1992 9.22223" fill="white"/>
</svg>
