<svg width="24" height="24" viewBox="0 0 24 24" fill="none" xmlns="http://www.w3.org/2000/svg">
<circle cx="12" cy="12" r="11" fill="url(#paint0_radial_980_9457)"/>
<g clip-path="url(#clip0_980_9457)">
<path d="M12 4.99997C10.0989 4.99997 9.86054 5.00803 9.11392 5.0421C8.36885 5.07608 7.85999 5.19442 7.41473 5.36745C6.95442 5.54634 6.56405 5.78569 6.17488 6.17484C5.78573 6.564 5.54638 6.9544 5.36749 7.41471C5.19445 7.85996 5.07612 8.36882 5.04211 9.11389C5.00805 9.86051 5 10.0989 5 12C5 13.9011 5.00805 14.1395 5.04211 14.8861C5.07612 15.6312 5.19445 16.14 5.36749 16.5853C5.54638 17.0456 5.78573 17.436 6.17488 17.8251C6.56405 18.2143 6.95442 18.4536 7.41473 18.6325C7.85999 18.8055 8.36885 18.9239 9.11392 18.9579C9.86054 18.9919 10.0989 19 12 19C13.9011 19 14.1395 18.9919 14.8861 18.9579C15.6312 18.9239 16.14 18.8055 16.5853 18.6325C17.0456 18.4536 17.436 18.2143 17.8252 17.8251C18.2143 17.436 18.4537 17.0456 18.6325 16.5853C18.8056 16.14 18.9239 15.6312 18.9579 14.8861C18.992 14.1395 19 13.9011 19 12C19 10.0989 18.992 9.86051 18.9579 9.11389C18.9239 8.36882 18.8056 7.85996 18.6325 7.41471C18.4537 6.9544 18.2143 6.564 17.8252 6.17484C17.436 5.78569 17.0456 5.54634 16.5853 5.36745C16.14 5.19442 15.6312 5.07608 14.8861 5.0421C14.1395 5.00803 13.9011 4.99997 12 4.99997ZM12 6.26123C13.8691 6.26123 14.0905 6.26837 14.8286 6.30205C15.5111 6.33317 15.8818 6.44721 16.1284 6.54307C16.4552 6.67006 16.6883 6.82174 16.9333 7.06668C17.1783 7.31165 17.3299 7.54484 17.4569 7.87158C17.5528 8.11824 17.6668 8.48888 17.6979 9.17138C17.7316 9.9095 17.7388 10.1309 17.7388 12C17.7388 13.8691 17.7316 14.0905 17.6979 14.8286C17.6668 15.5111 17.5528 15.8817 17.4569 16.1284C17.3299 16.4551 17.1783 16.6883 16.9333 16.9333C16.6883 17.1782 16.4552 17.3299 16.1284 17.4569C15.8818 17.5528 15.5111 17.6668 14.8286 17.6979C14.0906 17.7316 13.8692 17.7387 12 17.7387C10.1308 17.7387 9.90945 17.7316 9.17141 17.6979C8.48891 17.6668 8.11827 17.5528 7.87161 17.4569C7.54486 17.3299 7.31168 17.1782 7.06674 16.9333C6.82179 16.6883 6.67008 16.4551 6.5431 16.1284C6.44724 15.8817 6.33321 15.5111 6.30207 14.8286C6.26839 14.0905 6.26126 13.8691 6.26126 12C6.26126 10.1309 6.26839 9.9095 6.30207 9.17138C6.33321 8.48888 6.44724 8.11824 6.5431 7.87158C6.67008 7.54484 6.82178 7.31165 7.06673 7.06671C7.31168 6.82174 7.54486 6.67006 7.87161 6.54307C8.11827 6.44721 8.48891 6.33317 9.17141 6.30205C9.90953 6.26837 10.1309 6.26123 12 6.26123Z" fill="white"/>
<path d="M12.0001 14.3332C10.7114 14.3332 9.66678 13.2886 9.66678 11.9999C9.66678 10.7112 10.7114 9.66655 12.0001 9.66655C13.2888 9.66655 14.3335 10.7112 14.3335 11.9999C14.3335 13.2886 13.2888 14.3332 12.0001 14.3332ZM12.0001 8.40528C10.0149 8.40528 8.40552 10.0146 8.40552 11.9999C8.40552 13.9851 10.0149 15.5945 12.0001 15.5945C13.9854 15.5945 15.5947 13.9851 15.5947 11.9999C15.5947 10.0146 13.9854 8.40528 12.0001 8.40528Z" fill="white"/>
<path d="M16.5767 8.26328C16.5767 8.72721 16.2006 9.10327 15.7367 9.10327C15.2728 9.10327 14.8967 8.72721 14.8967 8.26328C14.8967 7.79936 15.2728 7.42326 15.7367 7.42326C16.2006 7.42326 16.5767 7.79936 16.5767 8.26328Z" fill="white"/>
</g>
<defs>
<radialGradient id="paint0_radial_980_9457" cx="0" cy="0" r="1" gradientUnits="userSpaceOnUse" gradientTransform="translate(6.5 23) rotate(-53.1301) scale(27.5)">
<stop stop-color="#FDF497"/>
<stop offset="0.0604165" stop-color="#FDF497"/>
<stop offset="0.383333" stop-color="#FD5949"/>
<stop offset="0.570833" stop-color="#D6249F"/>
<stop offset="0.888542" stop-color="#285AEB"/>
</radialGradient>
<clipPath id="clip0_980_9457">
<rect width="14" height="14" fill="white" transform="translate(5 5)"/>
</clipPath>
</defs>
</svg>
