<svg width="24" height="24" viewBox="0 0 24 24" fill="none" xmlns="http://www.w3.org/2000/svg">
<path d="M12 23C18.0751 23 23 18.0751 23 12C23 5.92487 18.0751 1 12 1C5.92487 1 1 5.92487 1 12C1 18.0751 5.92487 23 12 23Z" fill="#1DA1F2"/>
<path d="M6 15.8653C7.18019 16.5819 8.58218 17 10.088 17C15.0402 17 17.8378 13.0413 17.6692 9.49028C18.1903 9.1347 18.6423 8.68993 19 8.18325C18.5218 8.3841 18.0076 8.52002 17.4685 8.5807C18.0185 8.26881 18.4416 7.77427 18.6404 7.18386C18.1256 7.4733 17.5544 7.68385 16.9473 7.79672C16.4608 7.30642 15.7678 7 15.0004 7C13.2792 7 12.0138 8.52003 12.4022 10.0995C10.1855 9.99454 8.22062 8.98908 6.90517 7.46177C6.20642 8.59648 6.54298 10.0813 7.73086 10.8325C7.29301 10.8192 6.88145 10.7051 6.52246 10.5164C6.49361 11.6863 7.37891 12.7797 8.66167 13.0237C8.28601 13.1208 7.87445 13.1426 7.45776 13.0667C7.79624 14.0704 8.78155 14.7998 9.94891 14.8204C8.8277 15.6523 7.41481 16.0237 6 15.8653V15.8653Z" fill="white"/>
</svg>
