<svg width="18" height="18" viewBox="0 0 18 18" fill="none" xmlns="http://www.w3.org/2000/svg">
<g clip-path="url(#clip0_64_3852)">
<path d="M13.1678 1.125C11.2349 1.125 9.5839 2.61493 9.00001 3.3599C8.49665 2.61493 6.92215 1.125 4.65101 1.125C1.81209 1.125 7.62939e-06 3.54111 7.62939e-06 6.01762C7.62939e-06 8.49413 1.9933 10.9102 3.56377 12.4203C5.13424 13.9304 6.88591 15.5008 7.48994 15.9841C8.09397 16.4673 8.57719 16.8901 9.06041 16.8901C9.54363 16.8901 10.1477 16.4069 10.3893 16.1653C10.6309 15.9237 12.3222 14.474 14.4362 12.4203C16.5503 10.3666 18 8.43372 18 5.7156C18 2.99748 15.5839 1.125 13.1678 1.125Z" fill="#F8312F"/>
<path fill-rule="evenodd" clip-rule="evenodd" d="M6.28616 1.39171C4.53891 1.56965 1.63088 2.63617 1.63088 5.83641C1.63088 9.70311 5.81136 12.8217 8.98904 15.1923L8.98912 15.1923C9.46806 15.5496 9.92422 15.8899 10.3399 16.2132C10.0727 16.4654 9.51344 16.8901 9.06041 16.8901C8.61591 16.8901 8.17141 16.5323 7.63288 16.0989C7.58597 16.0611 7.53834 16.0228 7.48994 15.9841C6.88591 15.5008 5.13424 13.9304 3.56377 12.4203C1.9933 10.9102 7.62939e-06 8.49413 7.62939e-06 6.01762C7.62939e-06 3.54111 1.81209 1.125 4.65101 1.125C5.24614 1.125 5.79344 1.22731 6.28616 1.39171ZM9.00001 3.3599L9 5.11158C9.30202 4.56795 10.2443 3.23909 11.5973 2.27265C12.6301 1.53494 14.0571 1.43073 15.0508 1.50333C14.4535 1.25756 13.8106 1.125 13.1678 1.125C11.2349 1.125 9.5839 2.61493 9.00001 3.3599Z" fill="#CA0B4A"/>
<ellipse cx="13.8162" cy="5.93769" rx="1.83324" ry="3.07635" transform="rotate(31.2144 13.8162 5.93769)" fill="#F37366"/>
</g>
<defs>
<clipPath id="clip0_64_3852">
<rect width="18" height="18" fill="white"/>
</clipPath>
</defs>
</svg>
