<svg width="33" height="32" viewBox="0 0 33 32" fill="none" xmlns="http://www.w3.org/2000/svg">
<path fill-rule="evenodd" clip-rule="evenodd" d="M11.7091 31.5239L6.021 22.8099L6.49803 18.9656L14.6816 8.86038L15.0119 3.36841L14.1312 0L16.4798 1.72082L17.5808 4.06406L17.6909 9.95874L11.7825 20.5399L10.2047 25.3363L11.7091 31.5239Z" fill="#747F9B"/>
<path fill-rule="evenodd" clip-rule="evenodd" d="M19.5624 8.09131L18.2414 13.0341L13.177 20.4665L11.8794 25.449L13.5073 30.1326L21.067 31.9998L25.8377 27.3132L26.645 19.1485L23.8927 15.2309L21.6131 16.9333L23.5129 18.1808L22.8651 23.2125L19.966 25.1164L17.7641 23.908L20.5897 18.5259L21.2138 12.9244L19.5624 8.09131Z" fill="#FF4E00"/>
</svg>
