<svg width="33" height="32" viewBox="0 0 33 32" fill="none" xmlns="http://www.w3.org/2000/svg">
<g clip-path="url(#clip0_1062_16091)">
<g opacity="0.1" filter="url(#filter0_d_1062_16091)">
<path fill-rule="evenodd" clip-rule="evenodd" d="M16.7332 0.600098L3.68633 6.07724C3.68633 6.07724 3.44248 12.0121 3.64881 15.0808C3.8739 18.4196 5.10344 22.4824 8.48513 25.9975C12.3467 30.0116 16.7332 30.7619 16.7332 30.7619C16.7332 30.7619 21.1196 30.0116 24.9813 25.9975C28.3629 22.4824 29.5926 18.4196 29.8177 15.0808C30.0274 12.0121 29.7802 6.07724 29.7802 6.07724L16.7332 0.600098Z" fill="black"/>
</g>
<path fill-rule="evenodd" clip-rule="evenodd" d="M29.7802 5.85214L16.7332 0.375L3.68633 5.85214C3.68633 5.85214 3.44248 11.787 3.64881 14.8557C3.8739 18.1945 5.10344 22.2573 8.48513 25.7724C12.3467 29.7865 16.7332 30.5368 16.7332 30.5368C16.7332 30.5368 21.1196 29.7865 24.9813 25.7724C28.3629 22.2573 29.5926 18.1945 29.8177 14.8557C30.0274 11.787 29.7802 5.85214 29.7802 5.85214Z" fill="#FAFAFA"/>
<path fill-rule="evenodd" clip-rule="evenodd" d="M16.735 6.33984C21.4462 6.33984 25.2652 10.2197 25.2652 15.0057C25.2652 19.7918 21.4462 23.6716 16.735 23.6716C12.0238 23.6716 8.20459 19.7918 8.20459 15.0057C8.20459 10.2197 12.0238 6.33984 16.735 6.33984Z" fill="#BDBDBD"/>
<path fill-rule="evenodd" clip-rule="evenodd" d="M16.735 23.3718C21.3956 23.3718 25.1831 19.5715 25.2652 14.856V15.006C25.2652 19.7929 21.4444 23.6719 16.735 23.6719C12.0256 23.6719 8.20459 19.7929 8.20459 15.006V14.856C8.28708 19.5715 12.0742 23.3718 16.735 23.3718Z" fill="#CACACA"/>
<path fill-rule="evenodd" clip-rule="evenodd" d="M16.735 6.63996C21.3956 6.63996 25.1831 10.4402 25.2652 15.1558V15.0057C25.2652 10.2189 21.4444 6.33984 16.735 6.33984C12.0256 6.33984 8.20459 10.2189 8.20459 15.0057V15.1558C8.28708 10.4402 12.0742 6.63996 16.735 6.63996Z" fill="#CACACA"/>
<path fill-rule="evenodd" clip-rule="evenodd" d="M22.4003 12.3109C22.3357 12.0638 22.2074 11.838 22.0282 11.656C21.849 11.474 21.6252 11.3421 21.3792 11.2736C20.4781 11.0293 16.8663 11.0293 16.8663 11.0293C16.8663 11.0293 13.2545 11.0293 12.3533 11.2736C12.1073 11.3422 11.8836 11.474 11.7045 11.6561C11.5253 11.8381 11.397 12.0639 11.3324 12.3109C11.0923 13.2279 11.0923 15.1371 11.0923 15.1371C11.0923 15.1371 11.0923 17.0501 11.3324 17.9634C11.3971 18.2104 11.5254 18.4362 11.7046 18.6182C11.8838 18.8003 12.1076 18.9321 12.3536 19.0006C13.2545 19.245 16.8663 19.245 16.8663 19.245C16.8663 19.245 20.4781 19.245 21.3793 19.0007C21.6254 18.9322 21.8491 18.8004 22.0283 18.6184C22.2075 18.4364 22.3358 18.2106 22.4005 17.9635C22.6409 17.0464 22.6409 15.1372 22.6409 15.1372C22.6409 15.1372 22.6408 13.2242 22.4003 12.3109ZM15.6574 16.8133V13.4309L18.6984 15.0845L15.6574 16.8133Z" fill="white"/>
<path opacity="0.1" fill-rule="evenodd" clip-rule="evenodd" d="M23.431 29.4865C26.9124 29.4865 29.7372 26.7255 29.7897 23.2966V23.3904C29.7897 26.8605 26.9424 29.6741 23.431 29.6741C19.9196 29.6741 17.0723 26.8605 17.0723 23.3904V23.2966C17.1248 26.7255 19.9534 29.4865 23.431 29.4865Z" fill="black"/>
<path d="M23.431 29.524C26.9428 29.524 29.7897 26.7106 29.7897 23.2402C29.7897 19.7699 26.9428 16.9565 23.431 16.9565C19.9192 16.9565 17.0723 19.7699 17.0723 23.2402C17.0723 26.7106 19.9192 29.524 23.431 29.524Z" fill="#FFA726"/>
<path fill-rule="evenodd" clip-rule="evenodd" d="M23.431 17.1441C26.9124 17.1441 29.7372 19.9052 29.7897 23.334V23.2402C29.7897 19.7701 26.9424 16.9565 23.431 16.9565C19.9196 16.9565 17.0723 19.7701 17.0723 23.2402V23.334C17.1248 19.9052 19.9534 17.1441 23.431 17.1441Z" fill="#FFB951"/>
<path fill-rule="evenodd" clip-rule="evenodd" d="M22.6992 19.3574H24.1998V24.1593H22.6992V19.3574ZM22.6992 25.8475H24.1998V27.348H22.6992V25.8475Z" fill="white"/>
</g>
<defs>
<filter id="filter0_d_1062_16091" x="3.19077" y="0.525068" width="27.0867" height="30.9122" filterUnits="userSpaceOnUse" color-interpolation-filters="sRGB">
<feFlood flood-opacity="0" result="BackgroundImageFix"/>
<feColorMatrix in="SourceAlpha" type="matrix" values="0 0 0 0 0 0 0 0 0 0 0 0 0 0 0 0 0 0 127 0" result="hardAlpha"/>
<feOffset dy="0.300117"/>
<feGaussianBlur stdDeviation="0.187573"/>
<feColorMatrix type="matrix" values="0 0 0 0 0 0 0 0 0 0 0 0 0 0 0 0 0 0 0.59 0"/>
<feBlend mode="normal" in2="BackgroundImageFix" result="effect1_dropShadow_1062_16091"/>
<feBlend mode="normal" in="SourceGraphic" in2="effect1_dropShadow_1062_16091" result="shape"/>
</filter>
<clipPath id="clip0_1062_16091">
<rect width="28.1735" height="32" fill="white" transform="translate(2.6665)"/>
</clipPath>
</defs>
</svg>
